<?xml version="1.0" encoding="UTF-8"?>
<svg width="17px" height="17px" viewBox="0 0 17 17" version="1.1" xmlns="http://www.w3.org/2000/svg" xmlns:xlink="http://www.w3.org/1999/xlink">
    <!-- Generator: Sketch 63.1 (92452) - https://sketch.com -->
    <title>login</title>
    <desc>Created with Sketch.</desc>
    <g id="Page-1" stroke="none" stroke-width="1" fill="none" fill-rule="evenodd">
        <path d="M8.5,8.57894737 C13.5695638,8.57894737 16.4028971,11.3859649 17,17 L0,17 C0.597102865,11.3859649 3.4304362,8.57894737 8.5,8.57894737 Z M8.5,10.5789474 C5.28030382,10.5789474 3.34653392,11.8706668 2.45649356,14.7886793 L2.394,15.001 L14.605,15.001 L14.5435064,14.7886793 C13.6775212,11.949532 11.8234619,10.649958 8.75824327,10.5817846 L8.5,10.5789474 Z M8.5,-5.68434189e-14 C10.4585328,-5.68434189e-14 12.05,1.57668576 12.05,3.52631579 C12.05,5.47594582 10.4585328,7.05263158 8.5,7.05263158 C6.54146718,7.05263158 4.95,5.47594582 4.95,3.52631579 C4.95,1.57668576 6.54146718,-5.68434189e-14 8.5,-5.68434189e-14 Z M8.5,2 C7.64188059,2 6.95,2.68545446 6.95,3.52631579 C6.95,4.36717712 7.64188059,5.05263158 8.5,5.05263158 C9.35811941,5.05263158 10.05,4.36717712 10.05,3.52631579 C10.05,2.68545446 9.35811941,2 8.5,2 Z" id="login" fill="#000000" fill-rule="nonzero"></path>
    </g>
</svg>